<?xml version="1.0" encoding="UTF-8"?>
<svg width="700px" height="495px" viewBox="0 0 700 495" version="1.1" xmlns="http://www.w3.org/2000/svg" xmlns:xlink="http://www.w3.org/1999/xlink">
    <!-- Generator: Sketch 49.2 (51160) - http://www.bohemiancoding.com/sketch -->
    <title>Shape</title>
    <desc>Created with Sketch.</desc>
    <defs>
        <path d="M66.4871685,14.1717791 L66.4871685,369.182004 L1,482.590537 C-1.14723926,487.028165 16.0404123,492.900712 16.0404123,492.900712 C16.0404123,492.900712 38.1950657,492.900712 43.0621413,492.900712 L675.986106,492.900712 C683.859316,492.900712 699.770442,490.463748 699.770442,482.590537 C699.770442,480.777313 676.86961,442.974469 631.067946,369.182004 L631.067946,14.1717791 C631.067946,6.29856851 624.769377,0 616.896166,0 L80.6589477,0 C72.785737,-1.22056421e-13 66.4871685,6.29856851 66.4871685,14.1717791 Z M264.319479,477 L271.763242,444.680982 L425.505573,444.680982 L432.806187,477 L264.319479,477 Z M94.8307268,28.3435583 L603.010686,28.3435583 L603.010686,358.302658 L94.8307268,358.302658 L94.8307268,28.3435583 Z M661.129295,473.680982 L487.828913,473.680982 L447.121115,440.679816 C444.687578,436.728972 439.820502,434.288745 434.380829,434.288745 L263.031136,434.288745 C257.591463,434.288745 252.724387,436.728972 250.290849,440.679816 L206.331561,473.680982 L36.1395202,473.680982 L89.5342033,386.646217 L608.307209,386.646217 L661.129295,473.680982 Z" id="path-1"></path>
    </defs>
    <g id="Welcome" stroke="none" stroke-width="1" fill="none" fill-rule="evenodd">
        <g id="var-2" transform="translate(0.000000, -178.000000)" fill-rule="nonzero" stroke="#1D5A9F">
            <g id="Welcome-" transform="translate(-2.000000, 101.000000)">
                <g id="laptop" transform="translate(1.000000, 78.000000)">
                    <g id="Shape">
                        <use xlink:href="#path-1"></use>
                        <use xlink:href="#path-1"></use>
                        <use xlink:href="#path-1"></use>
                        <use xlink:href="#path-1"></use>
                    </g>
                </g>
            </g>
        </g>
    </g>
</svg>