<?xml version="1.0" encoding="UTF-8"?>
<svg width="204px" height="202px" viewBox="0 0 204 202" version="1.1" xmlns="http://www.w3.org/2000/svg" xmlns:xlink="http://www.w3.org/1999/xlink">
    <!-- Generator: Sketch 49.2 (51160) - http://www.bohemiancoding.com/sketch -->
    <title>settings-gears</title>
    <desc>Created with Sketch.</desc>
    <defs></defs>
    <g id="Welcome" stroke="none" stroke-width="1" fill="none" fill-rule="evenodd" fill-opacity="0.371122056">
        <g id="var-2" transform="translate(-63.000000, -1060.000000)" fill="#8EADCF" fill-rule="nonzero" stroke="#637D9B" stroke-width="4">
            <g id="SECTION-main-features" transform="translate(65.000000, 927.000000)">
                <g id="main-features" transform="translate(0.000000, 34.000000)">
                    <g id="easyto-config" transform="translate(0.000000, 32.000000)">
                        <g id="settings-gears" transform="translate(0.000000, 69.000000)">
                            <path d="M13.1189711,72.3554126 C14.1693462,75.9566988 15.6270096,79.4293676 17.4705252,82.6876742 L12.2186495,89.3114684 C10.5037513,91.4765273 10.6966774,94.5633441 12.6259378,96.5140407 L21.6720257,105.560129 C23.6227224,107.510825 26.7095391,107.682101 28.8745981,105.967203 L35.4555198,100.758199 C38.8424437,102.70911 42.4437299,104.230868 46.1950697,105.30268 L47.1811361,113.769989 C47.5026795,116.513826 49.8177921,118.571704 52.5616292,118.571704 L65.3590568,118.571704 C68.1028939,118.571704 70.4180064,116.513612 70.7395498,113.769989 L71.6827438,105.602787 C75.7127546,104.552412 79.5712755,102.987567 83.1939979,100.951125 L89.5605573,105.988639 C91.7256163,107.703537 94.812433,107.510611 96.7631297,105.58135 L105.809218,96.5352626 C107.759914,94.5845659 107.931404,91.4977492 106.216506,89.3326902 L101.264737,83.0518757 C103.322615,79.4932476 104.930332,75.6992497 106.002144,71.7335477 L113.633441,70.8546624 C116.377492,70.533119 118.435155,68.2180064 118.435155,65.4741693 L118.435155,52.6767417 C118.435155,49.9329046 116.377278,47.6177921 113.633441,47.2962487 L106.109325,46.4173633 C105.080171,42.4945338 103.536977,38.743194 101.565059,35.2276527 L106.195284,29.3755627 C107.910182,27.2105038 107.717256,24.123687 105.787996,22.1729904 L96.7633441,13.1483387 C94.8126474,11.197642 91.7258307,11.0261522 89.5607717,12.7410504 L83.8801715,17.2426581 C80.1931404,15.0775991 76.2486602,13.4270096 72.1116827,12.3123258 L71.2542337,4.95969989 C70.9326902,2.21586281 68.6175777,0.157984995 65.8737406,0.157984995 L53.076313,0.157984995 C50.3324759,0.157984995 48.0173633,2.21586281 47.6958199,4.95969989 L46.8383708,12.3123258 C42.5939979,13.4484459 38.5425509,15.1633441 34.7697749,17.4141479 L28.8748124,12.7410504 C26.7097535,11.0261522 23.6229368,11.2190782 21.6722401,13.1483387 L12.6261522,22.1944266 C10.6754555,24.1451233 10.5039657,27.23194 12.2188639,29.3969989 L17.1491961,35.6349411 C15.1770632,39.1933548 13.6765273,42.987567 12.6904609,46.9318328 L4.80192926,47.8321543 C2.05809218,48.1536977 0.000214362272,50.4688103 0.000214362272,53.2126474 L0.000214362272,66.010075 C0.000214362272,68.7539121 2.05809218,71.0690247 4.80192926,71.3905681 L13.1189711,72.3554126 Z M59.4855305,37.7359057 C71.1468382,37.7359057 80.6430868,47.2321543 80.6430868,58.893462 C80.6430868,70.5547696 71.1468382,80.0510182 59.4855305,80.0510182 C47.8244373,80.0510182 38.3279743,70.5547696 38.3279743,58.893462 C38.3279743,47.2321543 47.8242229,37.7359057 59.4855305,37.7359057 Z" id="Shape"></path>
                            <path d="M186.001929,75.506538 L179.249518,69.8045016 C177.170418,68.046731 174.104823,68.1324759 172.132905,69.9974277 L168.403001,73.4915327 C165.25209,71.9695606 161.908039,70.8977492 158.456592,70.2760986 L157.406645,65.1314041 C156.87074,62.4733119 154.405573,60.6297964 151.70418,60.8441586 L142.893891,61.5944266 C140.192926,61.8302251 138.07074,64.0381565 137.984995,66.7605573 L137.813719,71.9909968 C134.426581,73.2128617 131.232583,74.8848875 128.317256,76.9856377 L123.858735,74.0274384 C121.586066,72.5269025 118.563773,72.955627 116.806217,75.0349411 L111.10418,81.8302251 C109.346195,83.9095391 109.43194,86.9749196 111.296677,88.9470525 L115.198285,93.1054662 C113.847588,96.1494105 112.882958,99.3436227 112.325831,102.623151 L106.752412,103.759271 C104.094319,104.295177 102.250804,106.760343 102.465166,109.461522 L103.215434,118.271811 C103.451233,120.972776 105.659164,123.094962 108.381565,123.180707 L114.405145,123.373419 C115.498821,126.245874 116.934834,128.968489 118.670954,131.519185 L115.305681,136.599571 C113.805145,138.871811 114.233869,141.894319 116.312969,143.65209 L123.06538,149.354126 C125.144909,151.111897 128.210075,151.026152 130.182422,149.1612 L134.598285,145.024009 C137.492176,146.374491 140.535906,147.381994 143.665595,147.982208 L144.887674,154.027224 C145.42358,156.685316 147.888746,158.528832 150.589711,158.314469 L159.4,157.564202 C162.100965,157.328403 164.223151,155.120686 164.308896,152.398071 L164.501822,146.481458 C167.717256,145.345338 170.760986,143.801929 173.569132,141.894319 L178.43537,145.109753 C180.70761,146.610289 183.729904,146.181565 185.487889,144.102251 L191.189925,137.349839 C192.947481,135.270525 192.861736,132.205145 190.996999,130.233012 L187.073955,126.074598 C188.510397,123.030654 189.560986,119.81522 190.160772,116.513826 L195.519829,115.420579 C198.177921,114.884673 200.021436,112.419507 199.807074,109.718328 L199.056806,100.908039 C198.821008,98.207074 196.613076,96.0848875 193.890675,95.9991426 L188.510182,95.8276527 C187.395284,92.6979636 185.894748,89.7399786 184.030011,86.9959271 L186.966559,82.5800643 C188.510182,80.3082529 188.081458,77.2643087 186.001929,75.506538 Z M152.797642,126.4388 C143.279957,127.253591 134.876527,120.157985 134.083601,110.640514 C133.26881,101.12283 140.36463,92.7196141 149.881886,91.9264737 C159.399571,91.1118971 167.803001,98.2075027 168.595927,107.724973 C169.410718,117.242872 162.314898,125.645874 152.797642,126.4388 Z" id="Shape"></path>
                            <path d="M43.9442658,150.147481 C41.2433012,150.426152 39.1639871,152.698178 39.1425509,155.420793 L39.0782422,160.844159 C39.0353698,163.566559 41.0503751,165.881672 43.7513398,166.224866 L47.738478,166.739121 C48.4030011,169.161629 49.3461951,171.476742 50.56806,173.663237 L47.9957128,176.835798 C46.2808146,178.957771 46.4094319,182.001929 48.3172562,183.952626 L52.1114684,187.832583 C54.0192926,189.78328 57.0632369,189.997642 59.2282958,188.325616 L62.4220793,185.86045 C64.6728832,187.189496 67.0525188,188.240086 69.5389068,188.968703 L69.9676313,193.084459 C70.2463023,195.785423 72.5185423,197.864737 75.2409432,197.886174 L80.664523,197.950482 C83.3867095,197.993355 85.7020364,195.978349 86.0450161,193.277385 L86.5380493,189.375991 C89.2392283,188.711254 91.8115756,187.703966 94.2550911,186.37492 L97.2561629,188.797213 C99.3783494,190.512111 102.422508,190.383494 104.373205,188.47567 L108.253162,184.681458 C110.203859,182.773848 110.418221,179.729689 108.746409,177.56463 L106.452304,174.58478 C107.867095,172.226795 108.960557,169.718757 109.710825,167.082101 L113.269239,166.717685 C115.970204,166.439014 118.049303,164.166774 118.070954,161.444373 L118.135048,156.020793 C118.178135,153.298607 116.16313,150.98328 113.462165,150.6403 L109.989282,150.190139 C109.324759,147.57492 108.338907,145.045445 107.052733,142.68746 L109.217792,140.029368 C110.93269,137.907181 110.804073,134.863237 108.896249,132.91254 L105.102251,129.032583 C103.194427,127.081672 100.150054,126.86731 97.985209,128.53955 L95.3912111,130.533119 C92.9476956,129.054019 90.3322615,127.917899 87.5886388,127.146195 L87.2454448,123.780707 C86.9667738,121.079528 84.6947481,119.000429 81.9721329,118.978992 L76.5487674,118.914684 C73.8263666,118.871811 71.511254,120.886817 71.16806,123.587781 L70.7393355,126.932047 C67.9099678,127.660665 65.187567,128.775563 62.6580922,130.233012 L59.9785638,128.046517 C57.8563773,126.331618 54.8122186,126.46045 52.861522,128.36806 L48.9601286,132.183923 C47.0094319,134.091533 46.7950697,137.135691 48.4670954,139.300536 L50.7607717,142.25895 C49.4317256,144.616935 48.3813505,147.124759 47.6953912,149.761629 L43.9442658,150.147481 Z M78.9496249,144.016506 C86.7309753,144.102251 92.9687031,150.511897 92.8831726,158.293248 C92.7974277,166.074598 86.3877814,172.312326 78.6064309,172.226795 C70.8250804,172.14105 64.5873526,165.731618 64.6728832,157.950054 C64.7588424,150.168917 71.1682744,143.930975 78.9496249,144.016506 Z" id="Shape"></path>
                        </g>
                    </g>
                </g>
            </g>
        </g>
    </g>
</svg>